<?xml version="1.0" encoding="UTF-8"?>
<svg version="1.1" xmlns="http://www.w3.org/2000/svg" width="16" height="16">
<path d="M0 0 C4.95 0 9.9 0 15 0 C15.33 1.32 15.66 2.64 16 4 C15.67 4.33 15.34 4.66 15 5 C14.76636119 6.84891946 14.58696365 8.70488031 14.4375 10.5625 C14.293125 12.356875 14.14875 14.15125 14 16 C9.38 16 4.76 16 0 16 C0 10.72 0 5.44 0 0 Z " fill="#C8D2D8" transform="translate(0,0)"/>
<path d="M0 0 C1.32 0.33 2.64 0.66 4 1 C2.78711502 6.66012991 0.91240397 9.72506402 -4 13 C-5.32 13 -6.64 13 -8 13 C-7.67 11.35 -7.34 9.7 -7 8 C-5.02 8.495 -5.02 8.495 -3 9 C-1.37168238 7.19038423 -1.37168238 7.19038423 0 5 C-0.33 4.01 -0.66 3.02 -1 2 C-0.67 1.34 -0.34 0.68 0 0 Z " fill="#9A8F84" transform="translate(12,0)"/>
<path d="M0 0 C1.98 0 3.96 0 6 0 C5.525625 0.5775 5.05125 1.155 4.5625 1.75 C3.0515133 3.92582084 2.45963849 5.42602448 2 8 C1.34 7.67 0.68 7.34 0 7 C0 4.69 0 2.38 0 0 Z " fill="#B3BDC1" transform="translate(2,5)"/>
<path d="M0 0 C0.99 0.99 1.98 1.98 3 3 C1.68 4.32 0.36 5.64 -1 7 C-1.99 6.67 -2.98 6.34 -4 6 C-2.84826645 3.53199953 -1.95216435 1.95216435 0 0 Z " fill="#FDCB4E" transform="translate(10,3)"/>
<path d="M0 0 C1.98 0.495 1.98 0.495 4 1 C3.67 2.32 3.34 3.64 3 5 C1.68 4.67 0.36 4.34 -1 4 C-0.67 2.68 -0.34 1.36 0 0 Z " fill="#D0969F" transform="translate(12,0)"/>
</svg>
